<!--?xml version="1.0" standalone="no"?-->
              <svg id="sw-js-blob-svg" viewBox="0 0 100 100" xmlns="http://www.w3.org/2000/svg" version="1.1">
                    <defs> 
                        <linearGradient id="sw-gradient" x1="0" x2="1" y1="1" y2="0">
                            <stop id="stop1" stop-color="rgba(248, 117, 55, 1)" offset="0%"></stop>
                            <stop id="stop2" stop-color="rgba(251, 168, 31, 1)" offset="100%"></stop>
                        </linearGradient>
                    </defs>
                <path fill="url(#sw-gradient)" d="M14.4,-26.2C19.9,-21.7,26.4,-20.4,30.1,-16.5C33.8,-12.7,34.7,-6.4,34.1,-0.3C33.5,5.7,31.5,11.4,29.4,18C27.3,24.6,25.1,32.1,20.2,35.5C15.3,39,7.6,38.2,1,36.5C-5.6,34.7,-11.3,32,-15.5,28.2C-19.8,24.5,-22.7,19.6,-26.7,14.7C-30.6,9.8,-35.7,4.9,-38.2,-1.4C-40.6,-7.7,-40.4,-15.4,-36.6,-20.7C-32.8,-25.9,-25.5,-28.7,-18.8,-32.5C-12.1,-36.3,-6.1,-41.1,-0.8,-39.7C4.4,-38.3,8.9,-30.7,14.4,-26.2Z" width="100%" height="100%" transform="translate(50 50)" stroke-width="0" style="transition: all 0.3s ease 0s;" stroke="url(#sw-gradient)"></path>
              </svg>