<!--?xml version="1.0" standalone="no"?-->
              <svg id="sw-js-blob-svg" viewBox="0 0 100 100" xmlns="http://www.w3.org/2000/svg" version="1.1">
                    <defs> 
                        <linearGradient id="sw-gradient" x1="0" x2="1" y1="1" y2="0">
                            <stop id="stop1" stop-color="rgba(57.676, 171.447, 255, 1)" offset="0%"></stop>
                            <stop id="stop2" stop-color="rgba(28.226, 226.611, 209.811, 1)" offset="100%"></stop>
                        </linearGradient>
                    </defs>
                <path fill="url(#sw-gradient)" d="M15.9,-27.4C21.6,-24.2,27.9,-22,32.6,-17.6C37.3,-13.2,40.3,-6.6,38.7,-0.9C37.1,4.7,30.8,9.4,26.9,15.1C22.9,20.8,21.3,27.4,17.2,29.2C13.1,31,6.6,28,-0.5,28.9C-7.6,29.9,-15.2,34.7,-21.1,33.9C-26.9,33.1,-31,26.7,-34.2,20.1C-37.4,13.5,-39.6,6.8,-38,0.9C-36.5,-5,-31.1,-9.9,-27.8,-16.2C-24.4,-22.4,-23,-30,-18.7,-34C-14.4,-38,-7.2,-38.4,-1.1,-36.6C5.1,-34.7,10.2,-30.6,15.9,-27.4Z" width="100%" height="100%" transform="translate(50 50)" stroke-width="0" style="transition: all 0.3s ease 0s;" stroke="url(#sw-gradient)"></path>
              </svg>